<svg t="1753454153654" class="icon" viewBox="0 0 1024 1024" version="1.1" xmlns="http://www.w3.org/2000/svg" p-id="3461" width="200" height="200"><path d="M609.213887 52.364295c-101.284079 25.272642-201.6006 55.344377-302.497655 82.436029-25.350047 8.862841-53.680175 10.643149-76.437163 25.466154-17.996598 28.639747-21.47981 64.013705-33.013114 95.710939l-170.29039 575.581516C19.738224 875.060387 67.226021 875.060387 95.285233 884.813382c106.005767 28.639747 211.469702 59.756446 317.785088 86.809397 54.609032-10.952768 107.979588-29.18158 162.046786-42.998324l204.812896-56.660256c29.916925-13.971552 27.672188-51.358033 38.973278-78.372282 59.562934-202.026326 120.016022-403.820437 178.99842-606.001572 4.218557-25.466154-22.44737-38.315338-43.656263-41.063205l-336.710543-93.001774z m0.15481 65.600502l236.316618 65.290883-236.316618 65.213479-236.35532-65.213479 236.35532-65.290883zM273.819225 222.538577l295.68604 81.739387-176.637577 595.977661-295.569933-81.932899L273.819225 222.538577z m645.555385 7.04383L746.181544 814.607299 461.332165 893.250497l173.425281-585.024892 284.617164-78.643198z" p-id="3462" fill="#3b82f6"></path><path d="M609.291292 84.564659l-357.145389 98.691021 357.145389 98.613617 357.14539-98.652319-357.14539-98.652319z m-197.536852 625.662372c-121.177093 32.200365-241.889758 66.451954-362.873338 99.465068-58.324458 32.897007 6.772913 78.565793 45.126953 54.454223l320.455551-88.396194 348.746977 96.214071c65.019967 2.244737 39.282897-71.018833-6.463295-68.696692l-333.807865-92.034215z" opacity=".5" p-id="3463" fill="#3b82f6"></path></svg>